<svg width="22" height="22" viewBox="0 0 22 22" fill="none" xmlns="http://www.w3.org/2000/svg">
<path d="M5.50003 18.8833C6.81631 18.8833 7.88337 17.8163 7.88337 16.5C7.88337 15.1837 6.81631 14.1167 5.50003 14.1167C4.18375 14.1167 3.1167 15.1837 3.1167 16.5C3.1167 17.8163 4.18375 18.8833 5.50003 18.8833Z" stroke="black" stroke-width="2.2"/>
<path d="M16.5 7.88334C17.8163 7.88334 18.8834 6.81628 18.8834 5.5C18.8834 4.18372 17.8163 3.11667 16.5 3.11667C15.1838 3.11667 14.1167 4.18372 14.1167 5.5C14.1167 6.81628 15.1838 7.88334 16.5 7.88334Z" stroke="black" stroke-width="2.2"/>
<path d="M7.8833 16.5H13.75C14.5766 16.5 15.3693 16.1716 15.9538 15.5871C16.5383 15.0027 16.8666 14.2099 16.8666 13.3833C16.8666 12.5567 16.5383 11.764 15.9538 11.1795C15.3693 10.595 14.5766 10.2667 13.75 10.2667H8.24997C7.42338 10.2667 6.63064 9.9383 6.04615 9.35381C5.46166 8.76932 5.1333 7.97658 5.1333 7.14999C5.1333 6.3234 5.46166 5.53066 6.04615 4.94618C6.63064 4.36169 7.42338 4.03333 8.24997 4.03333H8.61663" stroke="black" stroke-width="2.2" stroke-linecap="round"/>
</svg>
