<svg width="16" height="16" viewBox="0 0 16 16" fill="none" xmlns="http://www.w3.org/2000/svg">
<path d="M8.4005 14.5327C9.6405 13.462 13.3332 9.99537 13.3332 6.66671C13.3332 5.25222 12.7713 3.89567 11.7711 2.89547C10.7709 1.89528 9.41432 1.33337 7.99984 1.33337C6.58535 1.33337 5.2288 1.89528 4.2286 2.89547C3.22841 3.89567 2.6665 5.25222 2.6665 6.66671C2.6665 9.99537 6.35917 13.462 7.59917 14.5327C7.71469 14.6196 7.8553 14.6665 7.99984 14.6665C8.14437 14.6665 8.28499 14.6196 8.4005 14.5327Z" stroke="black" stroke-width="1.44118" stroke-linecap="round" stroke-linejoin="round"/>
<path d="M8 8.66663C9.10457 8.66663 10 7.7712 10 6.66663C10 5.56206 9.10457 4.66663 8 4.66663C6.89543 4.66663 6 5.56206 6 6.66663C6 7.7712 6.89543 8.66663 8 8.66663Z" stroke="black" stroke-width="1.44118" stroke-linecap="round" stroke-linejoin="round"/>
</svg>
