<svg width="18" height="18" viewBox="0 0 18 18" fill="none" xmlns="http://www.w3.org/2000/svg">
<path d="M10.5795 4.1647C10.7877 4.26874 11.0173 4.3229 11.25 4.3229C11.4827 4.3229 11.7123 4.26874 11.9205 4.1647L14.6648 2.7922C14.7792 2.73502 14.9063 2.70806 15.0341 2.71388C15.1619 2.7197 15.2861 2.7581 15.3948 2.82545C15.5036 2.89279 15.5933 2.98684 15.6555 3.09864C15.7177 3.21044 15.7502 3.33628 15.75 3.4642V13.0372C15.7499 13.1764 15.7111 13.3129 15.6378 13.4313C15.5646 13.5498 15.4598 13.6455 15.3353 13.7077L11.9205 15.4155C11.7123 15.5195 11.4827 15.5736 11.25 15.5736C11.0173 15.5736 10.7877 15.5195 10.5795 15.4155L7.4205 13.836C7.2123 13.7319 6.98275 13.6778 6.75 13.6778C6.51726 13.6778 6.2877 13.7319 6.0795 13.836L3.33525 15.2085C3.22077 15.2657 3.09354 15.2926 2.96569 15.2868C2.83784 15.2809 2.71362 15.2424 2.60484 15.175C2.49606 15.1076 2.40635 15.0134 2.34424 14.9015C2.28213 14.7896 2.24969 14.6637 2.25 14.5357V4.96345C2.25008 4.8242 2.28891 4.68773 2.36217 4.56931C2.43542 4.45088 2.54019 4.35519 2.66475 4.29295L6.0795 2.5852C6.2877 2.48116 6.51726 2.427 6.75 2.427C6.98275 2.427 7.2123 2.48116 7.4205 2.5852L10.5795 4.1647Z" stroke="black" stroke-width="2.49468" stroke-linecap="round" stroke-linejoin="round"/>
<path d="M11.25 4.323V15.573" stroke="black" stroke-width="2.49468" stroke-linecap="round" stroke-linejoin="round"/>
<path d="M6.75 2.427V13.677" stroke="black" stroke-width="2.49468" stroke-linecap="round" stroke-linejoin="round"/>
</svg>
