<svg width="24" height="24" viewBox="0 0 24 24" fill="none" xmlns="http://www.w3.org/2000/svg">
<path d="M6.00002 20.5999C7.43596 20.5999 8.60002 19.4358 8.60002 17.9999C8.60002 16.564 7.43596 15.3999 6.00002 15.3999C4.56408 15.3999 3.40002 16.564 3.40002 17.9999C3.40002 19.4358 4.56408 20.5999 6.00002 20.5999Z" stroke="white" stroke-width="2.2"/>
<path d="M18 8.5999C19.436 8.5999 20.6 7.43584 20.6 5.9999C20.6 4.56396 19.436 3.3999 18 3.3999C16.5641 3.3999 15.4 4.56396 15.4 5.9999C15.4 7.43584 16.5641 8.5999 18 8.5999Z" stroke="white" stroke-width="2.2"/>
<path d="M8.59998 17.9999H15C15.9017 17.9999 16.7665 17.6417 17.4041 17.0041C18.0418 16.3664 18.4 15.5016 18.4 14.5999C18.4 13.6982 18.0418 12.8334 17.4041 12.1957C16.7665 11.5581 15.9017 11.1999 15 11.1999H8.99998C8.09824 11.1999 7.23344 10.8417 6.59581 10.2041C5.95819 9.56644 5.59998 8.70164 5.59998 7.7999C5.59998 6.89817 5.95819 6.03336 6.59581 5.39574C7.23344 4.75812 8.09824 4.3999 8.99998 4.3999H16" stroke="white" stroke-width="2.2" stroke-linecap="round"/>
</svg>
