<svg width="23" height="23" viewBox="0 0 23 23" fill="none" xmlns="http://www.w3.org/2000/svg">
<g clip-path="url(#clip0_603_3043)">
<path fill-rule="evenodd" clip-rule="evenodd" d="M22.8994 11.7613C22.8994 10.9459 22.8262 10.1618 22.6903 9.40906H11.8594V13.8575H18.0485C17.7819 15.295 16.9717 16.5129 15.7537 17.3284V20.2138H19.4703C21.6448 18.2118 22.8994 15.2636 22.8994 11.7613Z" fill="#4285F4"/>
<path fill-rule="evenodd" clip-rule="evenodd" d="M11.8594 22.9999C14.9644 22.9999 17.5676 21.9702 19.4703 20.2138L15.7537 17.3283C14.724 18.0183 13.4067 18.4261 11.8594 18.4261C8.86418 18.4261 6.32895 16.4031 5.42463 13.6849H1.58258V16.6645C3.47485 20.4229 7.36395 22.9999 11.8594 22.9999Z" fill="#34A853"/>
<path fill-rule="evenodd" clip-rule="evenodd" d="M5.4246 13.685C5.1946 12.995 5.06392 12.258 5.06392 11.5C5.06392 10.742 5.1946 10.005 5.4246 9.315V6.33545H1.58256C0.803693 7.88795 0.359375 9.64431 0.359375 11.5C0.359375 13.3557 0.803693 15.112 1.58256 16.6645L5.4246 13.685Z" fill="#FBBC05"/>
<path fill-rule="evenodd" clip-rule="evenodd" d="M11.8594 4.57387C13.5478 4.57387 15.0637 5.15409 16.2555 6.29364L19.554 2.99523C17.5624 1.13955 14.9592 0 11.8594 0C7.36395 0 3.47485 2.57705 1.58258 6.33546L5.42463 9.315C6.32895 6.59682 8.86417 4.57387 11.8594 4.57387Z" fill="#EA4335"/>
</g>
<defs>
<clipPath id="clip0_603_3043">
<rect width="23" height="23" fill="white"/>
</clipPath>
</defs>
</svg>
